<svg width="512" height="512" viewBox="0 0 512 512" fill="none" xmlns="http://www.w3.org/2000/svg">
<path fill-rule="evenodd" clip-rule="evenodd" d="M354.699 55.2L375.054 128H416V160H384V272C383.989 280.484 380.615 288.617 374.616 294.616C368.617 300.615 360.484 303.989 352 304V336H320V304H128V336H96V304C87.5163 303.989 79.3831 300.615 73.3843 294.616C67.3854 288.617 64.0106 280.484 64 272V160H32V128H72.504L93.3008 55.2112C95.2315 48.5362 99.2734 42.6666 104.821 38.482C110.368 34.2974 117.122 32.0232 124.07 32H323.93C330.877 32.0227 337.629 34.2955 343.176 38.4779C348.723 42.6603 352.766 48.5272 354.699 55.2ZM323.933 64H124.07L101.211 144H346.789L323.933 64ZM320 208H352V176H96V208H128V240H96V272H352V240H320V208ZM272 208H176V240H272V208ZM224 496H256V492.352C255.95 476.077 250.96 460.201 241.69 446.825C232.42 433.448 219.307 423.201 204.086 417.44L147.578 396.254C141.838 394.081 136.893 390.216 133.397 385.17C129.901 380.125 128.019 374.138 128 368H96C96.0396 380.647 99.9178 392.984 107.122 403.379C114.326 413.774 124.516 421.737 136.344 426.214L192.851 447.406C201.984 450.863 209.852 457.011 215.414 465.036C220.976 473.062 223.97 482.587 224 492.352V496ZM448 496H480V492.352C479.95 476.077 474.96 460.201 465.69 446.825C456.42 433.448 443.307 423.201 428.086 417.44L371.578 396.254C365.838 394.081 360.893 390.216 357.397 385.17C353.901 380.125 352.019 374.138 352 368H320C320.04 380.647 323.918 392.984 331.122 403.379C338.326 413.774 348.516 421.737 360.344 426.214L416.851 447.406C425.984 450.863 433.851 457.011 439.414 465.036C444.976 473.062 447.97 482.587 448 492.352V496Z" fill="white"/>
</svg>
