<svg width="512" height="512" viewBox="0 0 512 512" fill="none" xmlns="http://www.w3.org/2000/svg">
<path d="M364.588 60.1598C344.968 44.023 321.992 32.4698 297.338 26.3432C272.684 20.2166 246.973 19.6711 222.081 24.7465C188.937 31.4414 158.529 47.8307 134.715 71.8352C110.9 95.8396 94.7528 126.377 88.3214 159.573C83.6248 184.463 84.4782 210.083 90.8208 234.605C97.1634 259.128 108.839 281.948 125.015 301.44C140.027 318.38 148.631 340.043 149.335 362.667V426.667C149.335 443.64 156.078 459.919 168.08 471.921C180.082 483.924 196.361 490.667 213.335 490.667H298.668C315.642 490.667 331.921 483.924 343.923 471.921C355.925 459.919 362.668 443.64 362.668 426.667V366.72C363.384 341.742 372.561 317.748 388.695 298.667C416.964 263.697 430.29 218.983 425.776 174.243C421.262 129.502 399.273 88.3516 364.588 59.7332V60.1598ZM320.001 426.667C320.001 432.324 317.754 437.751 313.753 441.752C309.752 445.752 304.326 448 298.668 448H213.335C207.677 448 202.251 445.752 198.25 441.752C194.249 437.751 192.001 432.324 192.001 426.667V405.333H320.001V426.667ZM355.628 272.213C334.178 297.655 321.662 329.43 320.001 362.667H277.335V298.667C277.335 293.009 275.087 287.582 271.086 283.582C267.086 279.581 261.659 277.333 256.001 277.333C250.343 277.333 244.917 279.581 240.916 283.582C236.916 287.582 234.668 293.009 234.668 298.667V362.667H192.001C191.438 329.986 179.35 298.555 157.868 273.92C143.695 256.938 134.164 236.574 130.205 214.813C126.246 193.051 127.994 170.635 135.278 149.75C142.562 128.865 155.134 110.224 171.767 95.6441C188.401 81.0645 208.529 71.0441 230.188 66.5598C248.803 62.7272 268.037 63.0877 286.495 67.6152C304.952 72.1427 322.17 80.7236 336.898 92.7348C351.626 104.746 363.495 119.886 371.643 137.056C379.79 154.226 384.012 172.995 384.001 192C384.159 221.224 374.126 249.588 355.628 272.213Z" fill="black"/>
</svg>
