<svg width="165" height="164" viewBox="0 0 165 164" fill="none" xmlns="http://www.w3.org/2000/svg">
<rect x="3" y="2.5" width="159" height="159" rx="79.5" stroke="white" stroke-width="5"/>
<path d="M70.5 116.375H51.75C50.9212 116.375 50.1263 116.046 49.5403 115.46C48.9542 114.874 48.625 114.079 48.625 113.25V95.7944C48.625 95.3841 48.7058 94.9777 48.8629 94.5985C49.0199 94.2194 49.2501 93.8749 49.5403 93.5847L96.4153 46.7097C97.0013 46.1237 97.7962 45.7944 98.625 45.7944C99.4538 45.7944 100.249 46.1237 100.835 46.7097L118.29 64.1653C118.876 64.7514 119.206 65.5462 119.206 66.375C119.206 67.2038 118.876 67.9987 118.29 68.5847L70.5 116.375Z" stroke="white" stroke-width="5" stroke-linecap="round" stroke-linejoin="round"/>
<path d="M86.125 57L108 78.875" stroke="white" stroke-width="5" stroke-linecap="round" stroke-linejoin="round"/>
<path d="M117.375 116.375H70.4999L48.8237 94.6987" stroke="white" stroke-width="5" stroke-linecap="round" stroke-linejoin="round"/>
</svg>
