<svg width="165" height="164" viewBox="0 0 165 164" fill="none" xmlns="http://www.w3.org/2000/svg">
<rect x="3" y="2.5" width="159" height="159" rx="79.5" stroke="white" stroke-width="5"/>
<g clip-path="url(#clip0_208_1007)">
<path d="M35 38H64.2308M100.769 38H130M49.6154 38V59.9231M115.385 38V59.9231M56.9231 81.8461H49.6154C45.7391 81.8461 42.0217 80.3063 39.2807 77.5654C36.5398 74.8245 35 71.107 35 67.2308V59.9231H130V67.2308C130 71.107 128.46 74.8245 125.719 77.5654C122.978 80.3063 119.261 81.8461 115.385 81.8461H108.077M56.9231 81.8461C56.9231 87.6605 59.2328 93.2367 63.3442 97.3481C67.4556 101.459 73.0318 103.769 78.8462 103.769H86.1538C91.9682 103.769 97.5444 101.459 101.656 97.3481C105.767 93.2367 108.077 87.6605 108.077 81.8461M56.9231 81.8461H108.077" stroke="white" stroke-width="5" stroke-linecap="round" stroke-linejoin="round"/>
<path d="M60.5773 93.9041C57.1252 96.9793 54.3636 100.751 52.4743 104.97C50.585 109.19 49.6107 113.762 49.6157 118.385V125.693H56.9234M104.423 93.9041C107.875 96.9793 110.637 100.751 112.526 104.97C114.416 109.19 115.39 113.762 115.385 118.385V125.693H108.077" stroke="white" stroke-width="5" stroke-linecap="round" stroke-linejoin="round"/>
</g>
<defs>
<clipPath id="clip0_208_1007">
<rect width="100" height="100" fill="white" transform="translate(32.5 32)"/>
</clipPath>
</defs>
</svg>
