<svg width="951" height="359" viewBox="0 0 951 359" fill="none" xmlns="http://www.w3.org/2000/svg">
<path d="M160.6 3.66667C159.533 5.80001 159 14.8667 159 27.5333C159 50.3333 159.8 52.3333 168.2 52.3333C174.2 52.3333 175 49.1333 175 26.3333C175 3.40001 174.067 0.333341 167 0.333341C163 0.333341 161.8 1.00001 160.6 3.66667Z" fill="white"/>
<path d="M52.3333 45.9333C50.2 49.6667 50.0667 50.4667 51.6667 53.5333C52.6 55.4 54.6 57.9333 55.9333 59.1333C57.2667 60.3333 62.3333 65.4 67.2667 70.6C80.8667 85 83.5333 86.4667 88.3333 81.6667C93.2667 76.7333 91.8 73.8 75.9333 57.2667C59.2667 40.0667 56.7333 38.8667 52.3333 45.9333Z" fill="white"/>
<path d="M270.067 44.0667C265.267 49 246.733 69.5333 244.867 71.9333C242.067 75.6667 242.6 80.0667 246.2 82.3333C251 85.5333 254.467 83.4 268.733 68.2C279.533 56.6 281.667 53.6667 281.667 50.0667C281.667 42.6 274.867 39 270.067 44.0667Z" fill="white"/>
<path d="M162.333 74.6C120.067 77.6667 87.6667 103.133 72.8667 145C71.1333 150.067 70.3333 157 70.0667 173.4C69.5333 193.267 69.8 195.8 72.3333 200.867C73.8 203.933 75 207.4 75 208.6C75 212.6 85 228.6 93.2667 237.8C106.467 252.333 112.2 266.2 112.333 283.667C112.467 293.267 114.733 296.867 122.333 298.867C125.667 299.8 144.333 300.333 171.4 300.333C223 300.333 220.333 301.133 220.333 285.667C220.333 280.6 221.133 273.8 222.2 270.733C223.267 267.533 224.467 263.133 225 260.733C225.4 258.467 226.733 255.8 227.8 254.867C228.867 254.067 229.667 252.733 229.667 251.933C229.667 251.267 232.467 247.267 235.933 243.133C239.533 239 242.867 234.867 243.667 233.933C244.333 233 245.933 231.133 247 229.8C252.067 223.933 260.067 207.4 261.8 199.267C265.267 183.267 265.8 177.667 265.133 167.933C261.4 121.667 229.667 85.1333 186.067 77.1333C171.667 74.3333 169 74.0667 162.333 74.6ZM194.333 96.0667C198.067 97.6667 201.933 99.6667 203 100.333C204.067 101 207 102.6 209.533 103.667C215 106.067 233.8 124.867 237.133 131.133C244.2 144.333 247 154.067 247.933 167.533C249 186.333 246.067 201.267 239 212.333C238.2 213.4 237.133 215.533 236.467 217C235.8 218.467 232.733 222.333 229.667 225.667C213.667 242.867 207.267 255.133 205.8 271.667L205 281H166.333H127.667L126.2 268.333C124.067 251.133 118.467 240.6 102.733 224.067C101.4 222.733 100.333 221.133 100.333 220.467C100.333 219.8 99.4 218.6 98.3333 217.667C97.1333 216.733 94.8667 212.867 93.1333 209.133C81.9333 184.867 83.2667 155.133 96.4667 132.867C102.867 121.8 119.4 105.8 129 101.133C133.4 99 138.2 96.7333 139.667 95.9333C145.533 93 149.8 92.4667 168.333 92.7333C185.267 93 188.467 93.4 194.333 96.0667Z" fill="white"/>
<path d="M163.133 123.267C159.8 134.2 153.8 151 152.2 153.933C151.133 155.933 148.333 156.333 130.867 156.6L110.6 157L126.2 169.4C134.867 176.2 142.067 182.6 142.467 183.533C142.867 184.467 142.2 187.933 141 191.133C139.8 194.333 138.333 199.133 137.8 201.667C137.267 204.2 135.8 208.2 134.6 210.6C133.4 213 132.333 215.933 132.333 217.4C132.333 218.733 131.4 221 130.333 222.467C129.267 223.8 128.333 225.4 128.333 225.933C128.2 228.733 133 226.067 146.333 215.667C147.8 214.6 152.867 210.867 157.533 207.533L166.067 201.267L170.467 203.667C172.867 205 175.933 207 177.267 208.2C182.6 213.133 203.133 227.267 203.8 226.6C204.2 226.2 201.533 216.467 197.8 205C194.067 193.533 191 183.933 191 183.667C191 183.4 198.2 177.267 207.133 170.067L223.267 157L203.267 156.6C183.8 156.333 183.267 156.2 181.133 153C179.933 151.267 178.467 147.533 177.8 144.733C177.133 141.933 175 135.4 173 130.333C171 125.133 169.133 119.667 168.733 117.933C167.533 113 165.933 114.6 163.133 123.267Z" fill="white"/>
<path d="M2.46666 142.867C0.0666564 145.4 -0.333344 150.6 1.53332 153.533C2.86666 155.533 26.4667 158.733 40.4667 158.867C47.5333 159 51 156.2 51 150.6C51 145.933 48.6 144.867 34.3333 143.133C10.4667 140.333 4.73332 140.333 2.46666 142.867Z" fill="white"/>
<path d="M305.667 142.467C284.467 144.733 283 145.4 283 152.333C283 160.067 285.267 160.467 307.8 158.067C329.8 155.533 331.933 154.867 333.133 150.2C333.933 147.267 333.4 145.933 330.467 143.4C328.467 141.667 325.8 140.467 324.6 140.467C323.4 140.6 314.867 141.4 305.667 142.467Z" fill="white"/>
<path d="M606.067 226.467C604.733 227.133 604.333 239.933 604.333 284.467V341.667L607.4 342.333C609.133 342.867 613.933 343 618.333 342.733L626.2 342.333L625.933 284.333L625.667 226.333L616.733 226.067C611.667 225.933 606.867 226.2 606.067 226.467Z" fill="white"/>
<path d="M283.667 230.067C283.267 230.867 283.133 256.6 283.267 287L283.667 342.333L316.333 342.733C334.333 342.867 350.2 342.733 351.667 342.467C354.067 341.8 354.467 340.6 354.6 334.067C355 321 355.533 321.267 329.667 321.933C317.267 322.067 306.867 321.933 306.333 321.533C305.933 321 305.133 315.8 304.867 310.067C303.8 295.267 303.533 295.4 327.933 295.133C338.733 295 347.8 294.6 348.2 294.333C348.467 293.933 348.733 289.933 348.867 285.4L349 277L327.933 276.6L306.867 276.2L305.667 272.867C304.2 269.133 303.933 253.8 305.133 250.467C305.8 248.6 309.267 248.333 329 248.333C345.8 248.333 352.333 247.933 353.4 246.6C355.133 244.467 355 230.6 353.133 229.4C352.333 228.867 336.467 228.333 317.933 228.333C292.2 228.333 284.067 228.733 283.667 230.067Z" fill="white"/>
<path d="M493.667 258.733C491 259.933 486.467 263 483.4 265.267C480.467 267.667 477.267 269.667 476.467 269.667C475.667 269.667 475 267.4 475 264.333V259H465.667H456.333L456.6 300.6L457 342.333H467H477L477.8 317C478.333 303 478.867 291 479.133 290.067C479.267 289.133 481.4 286.467 483.8 284.2C487.267 280.867 489.667 279.8 495.933 279.133L503.667 278.333L503.267 268.467C502.733 255 502.467 254.6 493.667 258.733Z" fill="white"/>
<path d="M536.467 259.267C529.667 261.533 526.467 263.533 520.2 269.8C515.8 274.2 512.333 278.733 512.333 280.2C512.333 281.533 511.4 284.867 510.333 287.4C505.4 299.4 509.8 320.867 519.4 331.267C528.733 341.533 534.467 343.667 551.667 343.667C565.4 343.667 566.733 343.4 572.333 339.933C579.933 335.4 586.867 327.533 589.267 320.867C594.6 306.467 594.867 299.267 590.733 286.333C588.2 278.733 586.333 275.667 580.333 269.667C573.667 263 571.8 261.933 562.067 259.267C549.4 255.8 547.667 255.8 536.467 259.267ZM558.467 277.533C561.533 278.867 565.4 282.067 567.133 284.467C569.933 288.467 570.333 290.467 570.333 301.133C570.333 312.467 570.067 313.4 566.467 317.8C562.467 322.467 554.867 326.867 550.467 327C546.733 327 537.133 321 534.467 317C531 311.667 529.533 301.267 531.133 293.267C532.733 285.667 537.267 279.8 543.667 276.867C549 274.467 552.067 274.6 558.467 277.533Z" fill="white"/>
<path d="M765.267 258.867C762.6 260.2 758.867 262.467 757.267 264.067C753.133 267.933 752.333 267.8 752.333 263V259H741.667H731L731.267 300.6L731.667 342.333H741.667H751.667L752.333 315.667C753 286.6 753.667 284.2 760.733 279.4C767.8 274.6 773.133 274.867 778.867 280.2L783 284.067V312.867V341.667L786.067 342.333C787.8 342.867 792.733 343 797 342.733L805 342.333L805.667 314.733C806.333 289.4 806.6 286.867 809.133 283.4C810.6 281.4 813.4 278.867 815.133 277.933C819.533 275.667 828.067 276.867 831.533 280.2C834.2 282.867 834.333 284.867 835 312.733L835.667 342.333L843.667 342.733C847.933 343 853 342.733 854.733 342.333L857.933 341.533L857.533 307.933L857 274.2L852.467 268.467C844.2 258.067 829.933 254.2 817.667 259C813.667 260.6 810.067 262.333 809.667 262.733C809.267 263.267 807.4 265.133 805.4 266.867L801.8 269.933L797.933 265.4C790.6 257.133 775.533 254.067 765.267 258.867Z" fill="white"/>
<path d="M900.333 258.333C897.8 259.267 894.467 260.2 893 260.2C888.733 260.467 877.933 270.6 873.933 278.2C870.733 284.467 870.467 286.333 870.333 301C870.333 316.067 870.6 317.4 874.067 323.8C881.267 336.733 888.067 341.8 901.667 344.2C915.8 346.733 931.533 342.467 940.333 333.667C944.467 329.533 948.333 323.133 948.333 320.467C948.333 317.933 947.533 317.667 938.867 317.667C929.533 317.667 929.133 317.8 923.533 323C918.2 327.933 917.133 328.333 909.933 328.333C903 328.333 901.533 327.8 897.133 323.933C893.667 320.867 891.8 317.933 890.867 313.8C890.2 310.6 889.933 307.667 890.333 307.133C890.867 306.733 904.467 306.067 920.6 305.933L950.067 305.4L949.4 294.333C948.867 286.2 947.8 281.667 945.533 277.4C936.733 261.133 915.933 252.333 900.333 258.333ZM917.267 275.133C922.867 277.267 928.333 284.067 928.333 289C928.333 290.867 926.067 291 910.067 290.733C888.733 290.333 887.667 289.4 895.667 280.467C901.4 274.2 909.4 272.067 917.267 275.133Z" fill="white"/>
<path d="M365.933 291.267C366.333 322.067 366.467 323.933 369.4 329.667C375.533 341.267 384.733 345.4 401 343.667C407.133 343 410.467 341.933 413.267 339.533C417.933 335.533 419 335.533 419 339.667C419 343.133 419 343.133 429.4 342.733L439.667 342.333L440.067 300.6L440.333 259H429.667H419V286.467C419 313.8 419 313.8 415.533 318.333C411.267 324.067 402.067 326.467 395.533 323.667C387.8 320.467 387 317 387 286.333V259H376.2H365.4L365.933 291.267Z" fill="white"/>
<path d="M640.6 291.267C641 321.8 641.267 324.067 644.2 329.933C645.8 333.533 647.667 336.333 648.067 336.333C648.6 336.333 650.6 337.8 652.6 339.667C659.267 345.8 678.467 345.8 687.667 339.533C692.733 336.2 695.267 336.333 694.733 340.067C694.333 342.067 695.667 342.333 704.333 342.333H714.333L714.733 300.6L715 259H704.333H693.667V285C693.667 308.6 693.4 311.667 691 316.467C687.933 322.467 684.2 324.333 675.667 324.333C671.4 324.333 668.733 323.4 666.067 321.133L662.333 317.933L661.933 288.467L661.533 259H650.733H640.067L640.6 291.267Z" fill="white"/>
<path d="M127.533 312.2C126.2 312.467 124.2 313.267 123.4 313.933C121.133 315.8 121.133 323.667 123.4 325.533C125.4 327.133 205.933 327.8 210.067 326.2C213.4 325 214.333 319.533 211.8 315.667L209.667 312.467L169.933 312.067C148.067 311.8 129 311.933 127.533 312.2Z" fill="white"/>
<path d="M135.8 345.133C133.133 347.8 133.133 351.533 135.8 355.667L137.933 359H165.8C191.933 359 193.8 358.867 196.333 356.333C199.267 353.4 199.933 347.133 197.4 344.6C196.2 343.4 187.533 343 166.867 343C142.333 343 137.533 343.267 135.8 345.133Z" fill="white"/>
</svg>
