<svg width="55" height="56" viewBox="0 0 55 56" fill="none" xmlns="http://www.w3.org/2000/svg">
<rect x="1" y="1.5" width="53" height="53" rx="26.5" stroke="white" stroke-width="2"/>
<path d="M22.4494 28.0024C23.746 30.6533 25.8948 32.7922 28.5515 34.0768C28.7459 34.1689 28.9609 34.2088 29.1754 34.1926C29.3899 34.1763 29.5964 34.1045 29.7747 33.9842L33.6866 31.3757C33.8596 31.2604 34.0586 31.19 34.2657 31.171C34.4728 31.1519 34.6813 31.1849 34.8724 31.2668L42.1907 34.4032C42.4393 34.5088 42.6469 34.6923 42.7821 34.9262C42.9173 35.16 42.9729 35.4314 42.9405 35.6996C42.7092 37.5096 41.826 39.1732 40.4564 40.379C39.0869 41.5847 37.3247 42.2499 35.5 42.25C29.8641 42.25 24.4591 40.0112 20.474 36.026C16.4888 32.0409 14.25 26.6359 14.25 21C14.2501 19.1753 14.9153 17.4132 16.1211 16.0436C17.3268 14.674 18.9905 13.7909 20.8005 13.5596C21.0686 13.5271 21.34 13.5827 21.5739 13.7179C21.8077 13.8531 21.9912 14.0607 22.0968 14.3093L25.236 21.634C25.3172 21.8234 25.3502 22.03 25.3323 22.2353C25.3143 22.4407 25.2458 22.6384 25.1329 22.8109L22.5335 26.7827C22.4152 26.9614 22.3453 27.1677 22.3305 27.3815C22.3158 27.5952 22.3567 27.8092 22.4494 28.0024V28.0024Z" stroke="white" stroke-width="2" stroke-linecap="round" stroke-linejoin="round"/>
</svg>
