<svg width="36" height="36" viewBox="0 0 36 36" fill="none" xmlns="http://www.w3.org/2000/svg">
<path fill-rule="evenodd" clip-rule="evenodd" d="M24.9398 3.88125L26.371 9H29.25V11.25H27V19.125C26.9993 19.7215 26.762 20.2934 26.3402 20.7152C25.9184 21.137 25.3465 21.3743 24.75 21.375V23.625H22.5V21.375H9V23.625H6.75V21.375C6.15349 21.3743 5.58163 21.137 5.15983 20.7152C4.73804 20.2934 4.50074 19.7215 4.5 19.125V11.25H2.25V9H5.09794L6.56021 3.88204C6.69597 3.4127 6.98016 3 7.3702 2.70577C7.76024 2.41154 8.23513 2.25163 8.7237 2.25H22.7763C23.2648 2.2516 23.7396 2.4114 24.1296 2.70548C24.5196 2.99955 24.8039 3.41207 24.9398 3.88125ZM22.7765 4.5H8.7237L7.11641 10.125H24.3836L22.7765 4.5ZM22.5 14.625H24.75V12.375H6.75V14.625H9V16.875H6.75V19.125H24.75V16.875H22.5V14.625ZM19.125 14.625H12.375V16.875H19.125V14.625ZM15.75 34.875H18V34.6185C17.9965 33.4742 17.6456 32.3579 16.9938 31.4174C16.342 30.4768 15.42 29.7563 14.3498 29.3512L10.3766 27.8616C9.97295 27.7088 9.62526 27.437 9.37946 27.0823C9.13367 26.7276 9.00134 26.3066 9 25.875H6.75C6.75278 26.7643 7.02547 27.6317 7.532 28.3626C8.03853 29.0935 8.75502 29.6534 9.58669 29.9682L13.5598 31.4583C14.202 31.7013 14.7552 32.1336 15.1463 32.6979C15.5374 33.2622 15.7479 33.9319 15.75 34.6185V34.875ZM31.5 34.875H33.75V34.6185C33.7465 33.4742 33.3956 32.3579 32.7438 31.4174C32.0921 30.4768 31.17 29.7563 30.0998 29.3512L26.1266 27.8616C25.723 27.7088 25.3753 27.437 25.1295 27.0823C24.8837 26.7276 24.7513 26.3066 24.75 25.875H22.5C22.5028 26.7643 22.7755 27.6317 23.282 28.3626C23.7885 29.0935 24.505 29.6534 25.3367 29.9682L29.3098 31.4583C29.952 31.7013 30.5052 32.1336 30.8963 32.6979C31.2874 33.2622 31.4979 33.9319 31.5 34.6185V34.875Z" fill="white"/>
</svg>
