<svg width="115" height="26" viewBox="0 0 115 26" fill="none" xmlns="http://www.w3.org/2000/svg">
<path d="M18.5148 3.055C17.5184 2.23555 16.3517 1.64887 15.0997 1.33775C13.8478 1.02663 12.5421 0.998933 11.2781 1.25667C9.595 1.59664 8.05083 2.42892 6.8415 3.64789C5.63216 4.86686 4.81218 6.4176 4.48559 8.10334C4.24709 9.36728 4.29043 10.6683 4.61251 11.9136C4.9346 13.1588 5.5275 14.3177 6.34892 15.3075C7.11125 16.1677 7.54821 17.2678 7.58392 18.4167V21.6667C7.58392 22.5286 7.92633 23.3553 8.53583 23.9648C9.14532 24.5743 9.97197 24.9167 10.8339 24.9167H15.1673C16.0292 24.9167 16.8559 24.5743 17.4654 23.9648C18.0748 23.3553 18.4173 22.5286 18.4173 21.6667V18.6225C18.4536 17.3541 18.9196 16.1356 19.7389 15.1667C21.1745 13.3908 21.8512 11.1202 21.6219 8.84826C21.3927 6.5763 20.2761 4.48661 18.5148 3.03334V3.055ZM16.2506 21.6667C16.2506 21.954 16.1365 22.2295 15.9333 22.4327C15.7301 22.6359 15.4546 22.75 15.1673 22.75H10.8339C10.5466 22.75 10.2711 22.6359 10.0679 22.4327C9.86473 22.2295 9.75059 21.954 9.75059 21.6667V20.5833H16.2506V21.6667ZM18.0598 13.8233C16.9705 15.1153 16.3349 16.7289 16.2506 18.4167H14.0839V15.1667C14.0839 14.8794 13.9698 14.6038 13.7666 14.4006C13.5635 14.1975 13.2879 14.0833 13.0006 14.0833C12.7133 14.0833 12.4377 14.1975 12.2346 14.4006C12.0314 14.6038 11.9173 14.8794 11.9173 15.1667V18.4167H9.75059C9.72201 16.7571 9.10811 15.161 8.01726 13.91C7.29753 13.0477 6.81355 12.0135 6.61251 10.9085C6.41146 9.80338 6.50021 8.66506 6.8701 7.60449C7.23999 6.54393 7.8784 5.59731 8.72307 4.85694C9.56775 4.11657 10.5899 3.60772 11.6898 3.38C12.635 3.18538 13.6118 3.20368 14.5491 3.43359C15.4864 3.66351 16.3607 4.09925 17.1086 4.7092C17.8566 5.31915 18.4593 6.08799 18.873 6.9599C19.2867 7.83181 19.5011 8.78491 19.5006 9.75C19.5086 11.234 18.9991 12.6744 18.0598 13.8233Z" fill="white"/>
<path d="M33.02 15.162C33.02 14.658 32.942 14.292 32.786 14.064C32.63 13.836 32.414 13.698 32.138 13.65C31.874 13.59 31.58 13.566 31.256 13.578L30.788 13.596V16.548C30.788 16.872 30.782 17.178 30.77 17.466C30.758 17.754 30.74 17.976 30.716 18.132H33.128C33.488 18.132 33.836 18.054 34.172 17.898C34.508 17.73 34.784 17.46 35 17.088C35.216 16.704 35.324 16.188 35.324 15.54H36.494L36.404 19.5H26.9V18.312C27.176 18.3 27.404 18.264 27.584 18.204C27.776 18.144 27.92 18.006 28.016 17.79C28.124 17.574 28.178 17.226 28.178 16.746V9.852C28.178 9.528 28.184 9.216 28.196 8.916C28.22 8.616 28.238 8.388 28.25 8.232C28.058 8.244 27.818 8.256 27.53 8.268C27.242 8.268 27.032 8.274 26.9 8.286V6.9H35.9L36.008 10.392H34.82C34.82 9.732 34.706 9.234 34.478 8.898C34.25 8.562 33.968 8.34 33.632 8.232C33.296 8.112 32.966 8.058 32.642 8.07L31.994 8.088C31.742 8.088 31.526 8.124 31.346 8.196C31.166 8.256 31.028 8.4 30.932 8.628C30.836 8.844 30.788 9.186 30.788 9.654V12.354H32.894L32.822 10.788H34.208V15.162H33.02ZM41.5382 19.788C40.8182 19.788 40.2362 19.65 39.7922 19.374C39.3602 19.098 39.0422 18.666 38.8382 18.078C38.6462 17.49 38.5502 16.734 38.5502 15.81V13.74C38.5502 13.524 38.5562 13.278 38.5682 13.002C38.5802 12.714 38.5922 12.438 38.6042 12.174C38.4122 12.186 38.1842 12.198 37.9202 12.21C37.6682 12.21 37.4762 12.216 37.3442 12.228V10.86H37.5242C38.2682 10.86 38.8562 10.8 39.2882 10.68C39.7202 10.56 39.9962 10.44 40.1162 10.32H41.1062V15.828C41.1062 16.608 41.2082 17.19 41.4122 17.574C41.6162 17.946 41.9402 18.132 42.3842 18.132C42.6962 18.132 43.0082 18.048 43.3202 17.88C43.6442 17.7 43.9082 17.496 44.1122 17.268V13.74C44.1122 13.524 44.1182 13.278 44.1302 13.002C44.1422 12.714 44.1602 12.438 44.1842 12.174C43.9922 12.186 43.7642 12.198 43.5002 12.21C43.2482 12.21 43.0562 12.216 42.9242 12.228V10.86H43.3562C43.9202 10.86 44.4182 10.8 44.8502 10.68C45.2822 10.548 45.5582 10.428 45.6782 10.32H46.6682V16.602C46.6682 16.77 46.6622 17.01 46.6502 17.322C46.6382 17.622 46.6202 17.91 46.5962 18.186C46.7882 18.162 46.9982 18.15 47.2262 18.15C47.4662 18.138 47.6462 18.132 47.7662 18.132V19.5H44.3462C44.3342 19.344 44.3162 19.188 44.2922 19.032C44.2802 18.876 44.2622 18.72 44.2382 18.564C43.8662 18.876 43.4642 19.158 43.0322 19.41C42.6122 19.662 42.1142 19.788 41.5382 19.788ZM48.9392 18.33C49.2752 18.33 49.5152 18.264 49.6592 18.132C49.8032 18 49.8932 17.814 49.9292 17.574C49.9772 17.322 50.0012 17.04 50.0012 16.728V13.704C50.0012 13.488 50.0072 13.248 50.0192 12.984C50.0312 12.708 50.0492 12.438 50.0732 12.174C49.8812 12.186 49.6532 12.198 49.3892 12.21C49.1372 12.21 48.9452 12.216 48.8132 12.228V10.86H49.5332C50.0012 10.86 50.4272 10.8 50.8112 10.68C51.2072 10.56 51.4652 10.44 51.5852 10.32H52.4672C52.4912 10.44 52.5092 10.668 52.5212 11.004C52.5332 11.328 52.5392 11.616 52.5392 11.868C52.8632 11.472 53.1692 11.154 53.4572 10.914C53.7452 10.674 54.0272 10.5 54.3032 10.392C54.5912 10.272 54.8792 10.212 55.1672 10.212C55.5872 10.212 55.9532 10.332 56.2652 10.572C56.5772 10.8 56.7332 11.178 56.7332 11.706C56.7332 11.886 56.6912 12.078 56.6072 12.282C56.5232 12.474 56.3912 12.636 56.2112 12.768C56.0312 12.9 55.7852 12.966 55.4732 12.966C55.2332 12.966 54.9872 12.894 54.7352 12.75C54.4832 12.606 54.3392 12.33 54.3032 11.922C54.0632 11.922 53.8232 12.024 53.5832 12.228C53.3432 12.42 53.1272 12.654 52.9352 12.93C52.7552 13.194 52.6292 13.44 52.5572 13.668V16.602C52.5572 16.77 52.5512 17.01 52.5392 17.322C52.5272 17.622 52.5092 17.91 52.4852 18.186C52.6772 18.162 52.8872 18.15 53.1152 18.15C53.3552 18.138 53.5352 18.132 53.6552 18.132V19.5H48.9392V18.33ZM61.857 19.788C60.993 19.788 60.213 19.602 59.517 19.23C58.821 18.858 58.269 18.33 57.861 17.646C57.465 16.95 57.267 16.134 57.267 15.198C57.267 14.202 57.471 13.332 57.879 12.588C58.299 11.832 58.851 11.25 59.535 10.842C60.231 10.422 60.987 10.212 61.803 10.212C62.667 10.212 63.441 10.398 64.125 10.77C64.809 11.142 65.349 11.676 65.745 12.372C66.141 13.056 66.339 13.878 66.339 14.838C66.339 15.846 66.147 16.722 65.763 17.466C65.379 18.21 64.851 18.786 64.179 19.194C63.507 19.59 62.733 19.788 61.857 19.788ZM61.929 18.51C62.409 18.498 62.769 18.33 63.009 18.006C63.261 17.682 63.435 17.274 63.531 16.782C63.627 16.29 63.675 15.792 63.675 15.288C63.675 14.844 63.639 14.394 63.567 13.938C63.507 13.482 63.405 13.068 63.261 12.696C63.117 12.324 62.919 12.024 62.667 11.796C62.427 11.568 62.127 11.46 61.767 11.472C61.299 11.484 60.927 11.652 60.651 11.976C60.387 12.3 60.195 12.708 60.075 13.2C59.967 13.68 59.913 14.184 59.913 14.712C59.913 15.324 59.979 15.924 60.111 16.512C60.243 17.1 60.453 17.586 60.741 17.97C61.041 18.342 61.437 18.522 61.929 18.51ZM67.3473 19.5V18.312C67.6233 18.3 67.8513 18.264 68.0313 18.204C68.2233 18.144 68.3673 18.006 68.4633 17.79C68.5713 17.574 68.6253 17.226 68.6253 16.746V9.852C68.6253 9.528 68.6313 9.216 68.6433 8.916C68.6673 8.616 68.6853 8.388 68.6973 8.232C68.5053 8.244 68.2653 8.256 67.9773 8.268C67.6893 8.268 67.4793 8.274 67.3473 8.286V6.9H72.5133V8.088C72.2493 8.1 72.0213 8.136 71.8293 8.196C71.6373 8.256 71.4873 8.394 71.3793 8.61C71.2833 8.814 71.2353 9.162 71.2353 9.654V16.548C71.2353 16.872 71.2293 17.178 71.2173 17.466C71.2053 17.754 71.1873 17.976 71.1633 18.132H73.5753C74.2833 18.132 74.8353 17.886 75.2313 17.394C75.6393 16.902 75.8433 16.164 75.8433 15.18H77.0493L76.9413 19.5H67.3473ZM81.6163 19.788C80.8963 19.788 80.3143 19.65 79.8703 19.374C79.4383 19.098 79.1203 18.666 78.9163 18.078C78.7243 17.49 78.6283 16.734 78.6283 15.81V13.74C78.6283 13.524 78.6343 13.278 78.6463 13.002C78.6583 12.714 78.6703 12.438 78.6823 12.174C78.4903 12.186 78.2623 12.198 77.9983 12.21C77.7463 12.21 77.5543 12.216 77.4223 12.228V10.86H77.6023C78.3463 10.86 78.9343 10.8 79.3663 10.68C79.7983 10.56 80.0743 10.44 80.1943 10.32H81.1843V15.828C81.1843 16.608 81.2863 17.19 81.4903 17.574C81.6943 17.946 82.0183 18.132 82.4623 18.132C82.7743 18.132 83.0863 18.048 83.3983 17.88C83.7223 17.7 83.9863 17.496 84.1903 17.268V13.74C84.1903 13.524 84.1963 13.278 84.2083 13.002C84.2203 12.714 84.2383 12.438 84.2623 12.174C84.0703 12.186 83.8423 12.198 83.5783 12.21C83.3263 12.21 83.1343 12.216 83.0023 12.228V10.86H83.4343C83.9983 10.86 84.4963 10.8 84.9283 10.68C85.3603 10.548 85.6363 10.428 85.7563 10.32H86.7463V16.602C86.7463 16.77 86.7403 17.01 86.7283 17.322C86.7163 17.622 86.6983 17.91 86.6743 18.186C86.8663 18.162 87.0763 18.15 87.3043 18.15C87.5443 18.138 87.7243 18.132 87.8443 18.132V19.5H84.4243C84.4123 19.344 84.3943 19.188 84.3703 19.032C84.3583 18.876 84.3403 18.72 84.3163 18.564C83.9443 18.876 83.5423 19.158 83.1103 19.41C82.6903 19.662 82.1923 19.788 81.6163 19.788ZM89.0173 19.5V18.33C89.3533 18.33 89.5933 18.264 89.7373 18.132C89.8813 18 89.9713 17.814 90.0073 17.574C90.0553 17.322 90.0793 17.04 90.0793 16.728V13.704C90.0793 13.488 90.0853 13.248 90.0973 12.984C90.1093 12.708 90.1273 12.438 90.1513 12.174C89.9593 12.186 89.7313 12.198 89.4673 12.21C89.2153 12.21 89.0233 12.216 88.8913 12.228V10.86C89.4433 10.86 89.9113 10.83 90.2953 10.77C90.6793 10.71 90.9793 10.638 91.1953 10.554C91.4233 10.47 91.5793 10.392 91.6633 10.32H92.5453C92.5693 10.44 92.5813 10.59 92.5813 10.77C92.5933 10.95 92.6053 11.1 92.6173 11.22C93.0253 10.908 93.4633 10.662 93.9313 10.482C94.4113 10.302 94.8613 10.212 95.2813 10.212C95.8333 10.212 96.2893 10.314 96.6493 10.518C97.0093 10.71 97.2973 11.004 97.5133 11.4C97.9453 11.04 98.4193 10.752 98.9353 10.536C99.4633 10.32 99.9673 10.212 100.447 10.212C101.419 10.212 102.151 10.494 102.643 11.058C103.147 11.61 103.399 12.576 103.399 13.956V16.602C103.399 16.77 103.393 17.01 103.381 17.322C103.369 17.622 103.351 17.91 103.327 18.186C103.519 18.162 103.729 18.15 103.957 18.15C104.197 18.138 104.377 18.132 104.497 18.132V19.5H99.9433V18.33C100.219 18.33 100.417 18.264 100.537 18.132C100.669 18 100.753 17.814 100.789 17.574C100.825 17.322 100.843 17.04 100.843 16.728V13.974C100.831 13.194 100.699 12.654 100.447 12.354C100.207 12.054 99.8833 11.898 99.4753 11.886C99.1633 11.874 98.8693 11.928 98.5933 12.048C98.3293 12.168 98.0893 12.312 97.8733 12.48C97.9333 12.72 97.9753 12.984 97.9993 13.272C98.0233 13.56 98.0353 13.866 98.0353 14.19C98.0353 14.598 98.0353 15 98.0353 15.396C98.0353 15.792 98.0353 16.194 98.0353 16.602C98.0353 16.77 98.0293 17.01 98.0173 17.322C98.0053 17.622 97.9873 17.91 97.9633 18.186C98.1553 18.162 98.3653 18.15 98.5933 18.15C98.8213 18.138 99.0013 18.132 99.1333 18.132V19.5H94.4893V18.33C94.8013 18.33 95.0233 18.264 95.1553 18.132C95.2993 18 95.3893 17.814 95.4253 17.574C95.4613 17.322 95.4793 17.04 95.4793 16.728L95.4613 13.92C95.4613 13.14 95.3473 12.606 95.1193 12.318C94.8913 12.03 94.5733 11.88 94.1653 11.868C93.8653 11.868 93.5833 11.934 93.3193 12.066C93.0673 12.198 92.8393 12.354 92.6353 12.534C92.6353 12.69 92.6353 12.84 92.6353 12.984C92.6353 13.128 92.6353 13.278 92.6353 13.434V16.602C92.6353 16.77 92.6293 17.01 92.6173 17.322C92.6053 17.622 92.5873 17.91 92.5633 18.186C92.7553 18.162 92.9533 18.15 93.1573 18.15C93.3613 18.138 93.5233 18.132 93.6433 18.132V19.5H89.0173ZM109.842 19.788C108.966 19.788 108.192 19.596 107.52 19.212C106.848 18.816 106.326 18.264 105.954 17.556C105.582 16.836 105.396 15.99 105.396 15.018C105.396 14.178 105.582 13.392 105.954 12.66C106.326 11.928 106.848 11.34 107.52 10.896C108.204 10.44 108.996 10.212 109.896 10.212C110.4 10.212 110.892 10.284 111.372 10.428C111.852 10.56 112.284 10.794 112.668 11.13C113.064 11.466 113.376 11.922 113.604 12.498C113.844 13.074 113.958 13.794 113.946 14.658L108.042 14.766C108.042 15.414 108.12 15.996 108.276 16.512C108.444 17.028 108.714 17.436 109.086 17.736C109.458 18.036 109.956 18.186 110.58 18.186C110.82 18.186 111.09 18.144 111.39 18.06C111.702 17.976 112.014 17.838 112.326 17.646C112.65 17.442 112.95 17.172 113.226 16.836L114.036 17.592C113.604 18.204 113.142 18.672 112.65 18.996C112.158 19.308 111.666 19.518 111.174 19.626C110.694 19.734 110.25 19.788 109.842 19.788ZM108.15 13.506H111.462C111.45 13.002 111.378 12.606 111.246 12.318C111.126 12.018 110.958 11.802 110.742 11.67C110.526 11.538 110.274 11.472 109.986 11.472C109.458 11.472 109.044 11.664 108.744 12.048C108.444 12.42 108.246 12.906 108.15 13.506Z" fill="white"/>
</svg>
